<?xml version="1.0" encoding="utf-8"?>
<!-- Generator: Adobe Illustrator 25.4.0, SVG Export Plug-In . SVG Version: 6.00 Build 0)  -->
<svg version="1.1" id="Layer_1" xmlns="http://www.w3.org/2000/svg" xmlns:xlink="http://www.w3.org/1999/xlink" x="0px" y="0px"
	 viewBox="0 0 300 300" style="enable-background:new 0 0 300 300;" xml:space="preserve">
<style type="text/css">
	.st0{opacity:0.1;fill:#3D4F9D;}
	.st1{fill:#3D4F9D;}
	.st2{fill:#FFFFFF;}
	.st3{fill:none;stroke:#3D4F9D;stroke-width:1.213;stroke-miterlimit:10;}
	.st4{fill:none;stroke:#FFFFFF;stroke-width:0.7;stroke-miterlimit:10;}
</style>
<circle class="st0" cx="149.79" cy="150.18" r="119.19"/>
<circle class="st1" cx="149.79" cy="150.18" r="90.73"/>
<g>
	<path class="st2" d="M197.75,145.87c-0.24-0.17-0.55-0.22-0.83-0.12c0,0-31.34,10.66-32.2,10.96c-0.72,0.25-1.18-0.37-1.18-0.37
		l-9.86-12.18c-0.25-0.3-0.66-0.42-1.02-0.29c-0.37,0.13-0.61,0.48-0.61,0.87v44.22c0,0.31,0.15,0.6,0.41,0.77
		c0.15,0.1,0.33,0.16,0.51,0.16c0.12,0,0.24-0.02,0.35-0.07l44.83-18.52c0,0,0,0,0,0v-24.65
		C198.14,146.32,197.99,146.04,197.75,145.87z"/>
	<path class="st2" d="M208.1,135.99l-8.63-11.54l-49.4-13.95c-0.16-0.05-0.39-0.03-0.55,0.01l-49.4,13.95c0,0,0,0,0,0L91.48,136
		c-0.18,0.24-0.23,0.54-0.14,0.83c0.09,0.28,0.3,0.51,0.58,0.6l41.52,14.09c0.1,0.03,0.2,0.05,0.3,0.05c0.27,0,0.54-0.12,0.72-0.34
		l15.36-17.3l0,0l15.31,17.29c0.18,0.22,0.44,0.34,0.72,0.34c0.1,0,0.2-0.02,0.3-0.05l41.52-14.09c0.28-0.1,0.5-0.32,0.58-0.6
		C208.33,136.53,208.28,136.22,208.1,135.99z M149.82,133.92l-35.21-9.62l35.21-9.88l35.16,9.87L149.82,133.92z"/>
	<path class="st2" d="M146.93,143.87c-0.37-0.13-0.78-0.02-1.02,0.29l-9.86,12.18c0,0-0.46,0.62-1.18,0.37
		c-0.86-0.3-32.2-10.96-32.2-10.96c-0.28-0.1-0.59-0.05-0.83,0.12c-0.24,0.17-0.39,0.45-0.39,0.75v24.65c0,0,0,0,0,0l44.83,18.52
		c0.11,0.05,0.23,0.07,0.35,0.07c0.18,0,0.36-0.05,0.51-0.16c0.26-0.17,0.41-0.46,0.41-0.77v-44.22
		C147.55,144.35,147.3,144,146.93,143.87z"/>
</g>
<g>
	<circle class="st3" cx="248.61" cy="224.41" r="11.88"/>
	<circle class="st2" cx="200.81" cy="172.92" r="4.76"/>
	<circle class="st1" cx="4.45" cy="107.11" r="3.36"/>
	<circle class="st3" cx="295.13" cy="85.77" r="3.36"/>
	<circle class="st4" cx="107.52" cy="84.85" r="4.29"/>
	<g>
		<path class="st1" d="M75.12,224.85L75.12,224.85c-0.2,0-0.36-0.16-0.36-0.36v-8.03c0-0.2,0.16-0.36,0.36-0.36l0,0
			c0.2,0,0.36,0.16,0.36,0.36v8.03C75.48,224.69,75.32,224.85,75.12,224.85z"/>
		<path class="st1" d="M70.75,220.48L70.75,220.48c0-0.18,0.15-0.33,0.33-0.33h8.08c0.18,0,0.33,0.15,0.33,0.33l0,0
			c0,0.18-0.15,0.33-0.33,0.33h-8.08C70.9,220.81,70.75,220.67,70.75,220.48z"/>
	</g>
	<g>
		<path class="st1" d="M228.15,43.36L228.15,43.36c-0.27-0.27-0.27-0.72,0-0.99l11.18-11.18c0.27-0.27,0.72-0.27,0.99,0l0,0
			c0.27,0.27,0.27,0.72,0,0.99l-11.18,11.18C228.87,43.64,228.42,43.64,228.15,43.36z"/>
		<path class="st1" d="M228.15,31.19L228.15,31.19c0.26-0.26,0.67-0.26,0.93,0l11.24,11.24c0.26,0.26,0.26,0.67,0,0.93l0,0
			c-0.26,0.26-0.67,0.26-0.93,0l-11.24-11.24C227.89,31.86,227.89,31.45,228.15,31.19z"/>
	</g>
</g>
</svg>
