<?xml version="1.0" encoding="utf-8"?>
<!-- Generator: Adobe Illustrator 25.4.0, SVG Export Plug-In . SVG Version: 6.00 Build 0)  -->
<svg version="1.1" id="Layer_1" xmlns="http://www.w3.org/2000/svg" xmlns:xlink="http://www.w3.org/1999/xlink" x="0px" y="0px"
	 viewBox="0 0 500 500" style="enable-background:new 0 0 500 500;" xml:space="preserve">
<style type="text/css">
	.st0{opacity:0.1;fill:#3749BB;}
	.st1{fill:#3749BB;}
	.st2{fill:#FFFFFF;}
	.st3{fill:#212032;}
	.st4{fill:#CCCCCC;}
	.st5{fill:#999999;}
	.st6{opacity:0.4;fill:#212032;}
	.st7{fill:none;stroke:#3749BB;stroke-width:1.9967;stroke-miterlimit:10;}
	.st8{fill:none;stroke:#FFFFFF;stroke-width:1.1522;stroke-miterlimit:10;}
</style>
<g>
	<circle class="st0" cx="250" cy="250" r="196.19"/>
	<circle class="st1" cx="250" cy="250" r="149.35"/>
	<g>
		<path class="st2" d="M173.26,295.41v-24.09h-41.27v-11.46L169,202h20.12v56.25h11.75v13.07h-11.75v24.09H173.26z M148.73,258.25
			h24.53V237.1c0-2.74,0.07-5.97,0.22-9.69c0.15-3.72,0.32-6.95,0.51-9.69h-0.59c-1.17,2.45-2.4,4.85-3.67,7.2
			c-1.27,2.35-2.6,4.8-3.96,7.34L148.73,258.25z"/>
		<path class="st2" d="M340.4,295.41v-24.09h-41.27v-11.46L336.14,202h20.12v56.25h11.75v13.07h-11.75v24.09H340.4z M315.87,258.25
			h24.53V237.1c0-2.74,0.07-5.97,0.22-9.69c0.15-3.72,0.32-6.95,0.51-9.69h-0.59c-1.17,2.45-2.4,4.85-3.67,7.2
			c-1.27,2.35-2.6,4.8-3.96,7.34L315.87,258.25z"/>
		<g>
			<g>
				<g>
					<g>
						
							<rect x="249.23" y="205.32" transform="matrix(1 -8.091203e-03 8.091203e-03 1 -1.7104 2.0333)" class="st3" width="2.42" height="14.19"/>
						
							<rect x="250.44" y="205.31" transform="matrix(1 -8.091203e-03 8.091203e-03 1 -1.7104 2.0382)" class="st3" width="1.21" height="14.19"/>
						<g>
							<path class="st2" d="M254.22,202.18c0.02,2.1-1.71,3.81-3.85,3.82c-2.15,0.02-3.9-1.67-3.91-3.76
								c-0.02-2.1,1.71-3.81,3.85-3.82C252.45,198.4,254.21,200.08,254.22,202.18z"/>
							<path class="st4" d="M254.22,202.18c0.02,2.09-1.71,3.81-3.85,3.82c-1.44,0.01-2.71-0.75-3.39-1.89
								c0.57,0.31,1.23,0.49,1.93,0.48c2.14-0.02,3.87-1.73,3.85-3.82c-0.01-0.68-0.2-1.32-0.52-1.87
								C253.42,199.54,254.21,200.77,254.22,202.18z"/>
						</g>
					</g>
					
						<ellipse transform="matrix(1 -7.425433e-03 7.425433e-03 1 -1.6762 1.8699)" class="st2" cx="250.98" cy="226.67" rx="23.51" ry="15.51"/>
					<path class="st4" d="M274.49,226.49c0.06,7.98-9,14.62-20.74,15.58c10.17-1.78,17.66-7.92,17.6-15.17
						c-0.07-8.57-10.65-15.43-23.63-15.33c-0.91,0.01-1.81,0.05-2.69,0.12c1.86-0.33,3.81-0.51,5.83-0.53
						C263.84,211.06,274.42,217.92,274.49,226.49z"/>
					
						<ellipse transform="matrix(1 -8.632272e-03 8.632272e-03 1 -2.2618 2.5171)" class="st2" cx="290.45" cy="263.27" rx="12.76" ry="16.58"/>
					<path class="st4" d="M303.21,263.17c0.07,9.16-5.58,16.62-12.62,16.68c-7.04,0.05-12.82-7.32-12.89-16.48
						c-0.01-0.64,0.02-1.28,0.07-1.91c1.56,6.98,6.53,12.07,12.39,12.02c6.55-0.05,11.89-6.51,12.55-14.77
						C303.02,260.13,303.2,261.62,303.21,263.17z"/>
					<path class="st2" d="M223.9,263.78c0.07,9.16-5.58,16.62-12.62,16.68c-7.04,0.05-12.82-7.32-12.89-16.48
						c-0.07-9.16,5.58-16.62,12.62-16.68C218.06,247.25,223.83,254.63,223.9,263.78z"/>
					<path class="st4" d="M223.9,263.78c0.07,9.16-5.57,16.62-12.62,16.68c-7.04,0.05-12.82-7.32-12.89-16.48
						c-0.01-1.31,0.09-2.59,0.31-3.81c0.6,8.52,6.14,15.18,12.84,15.13c6.04-0.05,11.05-5.54,12.31-12.87
						C223.88,262.88,223.9,263.33,223.9,263.78z"/>
					<path class="st2" d="M297.34,260.69c0.03,3.73-0.41,7.37-1.26,10.84c-0.32,1.3-0.69,2.57-1.13,3.82
						c-0.22,0.64-0.46,1.28-0.7,1.91c-0.3,0.74-0.61,1.47-0.95,2.19c-0.09,0.2-0.18,0.39-0.27,0.59c-0.44,0.91-0.91,1.8-1.4,2.68
						c-0.33,0.59-0.68,1.16-1.03,1.73c-0.54,0.86-1.1,1.68-1.7,2.5c-0.34,0.47-0.7,0.95-1.07,1.41h-64.7
						c0.03,0.03,0.06,0.06,0.09,0.1c-0.06-0.03-0.12-0.06-0.19-0.1h-7.82c-0.48-0.6-0.94-1.22-1.38-1.84
						c-0.14-0.19-0.28-0.39-0.41-0.6c-0.16-0.23-0.32-0.46-0.47-0.69c-0.4-0.61-0.79-1.22-1.15-1.85c-0.16-0.26-0.31-0.52-0.46-0.79
						c-0.1-0.17-0.19-0.33-0.28-0.51c-0.18-0.33-0.36-0.67-0.53-1.01c-0.12-0.22-0.23-0.45-0.33-0.67h-0.01
						c-0.11-0.22-0.21-0.44-0.31-0.65c-0.02-0.03-0.03-0.06-0.05-0.1c-0.13-0.27-0.26-0.55-0.38-0.83c-0.27-0.6-0.52-1.2-0.75-1.81
						l-0.01-0.01c-0.31-0.79-0.59-1.58-0.86-2.39c-1.36-4.18-2.11-8.62-2.15-13.23c-0.03-3.78,0.41-7.45,1.3-10.97
						c0.21-0.84,0.45-1.68,0.7-2.51v-0.01c3.4-10.84,10.9-19.93,20.76-25.55c5.91-3.37,12.68-5.49,19.91-5.97
						c0.31-0.02,0.61-0.04,0.92-0.05c0.4-0.02,0.81-0.03,1.21-0.04c0.22-0.01,0.45-0.01,0.67-0.01h0.54
						c5.88,0.02,11.5,1.13,16.67,3.13h0.01c1.69,0.65,3.33,1.4,4.91,2.23h0.01c5.15,2.72,9.71,6.37,13.43,10.73
						c0.08,0.1,0.16,0.19,0.24,0.29c0.24,0.29,0.48,0.58,0.72,0.87c0.14,0.17,0.27,0.35,0.41,0.52c0.24,0.3,0.46,0.6,0.68,0.9
						c0.16,0.22,0.32,0.44,0.48,0.66c0.18,0.24,0.34,0.49,0.51,0.74c0.89,1.3,1.7,2.65,2.44,4.04c0.41,0.76,0.79,1.53,1.15,2.32
						c0.13,0.29,0.26,0.58,0.39,0.87c0.25,0.58,0.49,1.17,0.72,1.77c0.11,0.3,0.23,0.6,0.33,0.9c0.2,0.58,0.4,1.16,0.58,1.74
						c0.01,0.03,0.02,0.06,0.03,0.09c0.1,0.31,0.19,0.62,0.27,0.93c0.06,0.22,0.12,0.45,0.18,0.67c0.11,0.4,0.21,0.8,0.31,1.21
						c0.07,0.28,0.13,0.56,0.19,0.84c0.08,0.35,0.15,0.7,0.22,1.06c0.06,0.32,0.12,0.65,0.17,0.97c0.05,0.32,0.11,0.65,0.15,0.97
						c0.05,0.33,0.09,0.65,0.13,0.98c0.02,0.15,0.04,0.31,0.05,0.46c0.06,0.51,0.11,1.03,0.15,1.55
						C297.29,258.69,297.33,259.68,297.34,260.69z"/>
					<path class="st4" d="M219.38,286.3c1.17,0.75,2.39,1.43,3.63,2.06h-7.82c-0.48-0.6-0.94-1.22-1.38-1.84
						c-0.14-0.19-0.28-0.39-0.41-0.6c-0.16-0.23-0.32-0.46-0.47-0.69c-0.4-0.61-0.79-1.22-1.15-1.85c-0.16-0.26-0.31-0.52-0.46-0.79
						c-0.1-0.17-0.19-0.33-0.28-0.51c-0.18-0.33-0.36-0.67-0.53-1.01c-0.12-0.22-0.23-0.45-0.33-0.67h-0.01
						c-0.11-0.22-0.21-0.44-0.31-0.65c-0.02-0.03-0.03-0.06-0.05-0.1c-0.13-0.27-0.26-0.55-0.38-0.83c-0.27-0.6-0.52-1.2-0.75-1.81
						c1.01,1.19,2.07,2.34,3.2,3.42C214.16,282.64,216.67,284.61,219.38,286.3z"/>
					<path class="st4" d="M297.34,260.69c0.03,3.73-0.41,7.37-1.26,10.84c-0.32,1.3-0.69,2.57-1.13,3.82
						c-0.22,0.64-0.46,1.28-0.7,1.91c-0.3,0.74-0.61,1.47-0.95,2.19c-0.09,0.2-0.18,0.39-0.27,0.59c-0.44,0.91-0.9,1.8-1.4,2.68
						c-0.33,0.59-0.68,1.16-1.03,1.73c-0.54,0.86-1.1,1.68-1.7,2.5c-0.34,0.47-0.7,0.95-1.07,1.41h-22.62
						c6.4-3.24,11.92-7.92,16.11-13.59h0.01c0.84-1.14,1.63-2.31,2.35-3.53c1.79-2.98,3.24-6.17,4.29-9.54
						c0.61-1.94,1.09-3.93,1.42-5.98c0.23-1.41,0.4-2.84,0.48-4.29c0.07-1.04,0.1-2.1,0.09-3.16c-0.01-0.52-0.02-1.04-0.04-1.55
						c-0.2-4.94-1.23-9.67-2.95-14.06c0.24,0.29,0.48,0.58,0.72,0.87c0.14,0.17,0.27,0.35,0.41,0.52c0.24,0.3,0.46,0.6,0.68,0.9
						c0.16,0.22,0.32,0.44,0.48,0.66c0.18,0.24,0.34,0.49,0.51,0.74c0.89,1.3,1.7,2.65,2.44,4.04c0.41,0.76,0.79,1.53,1.15,2.32
						c0.13,0.29,0.26,0.58,0.39,0.87c0.25,0.58,0.49,1.17,0.72,1.77c0.11,0.3,0.23,0.6,0.33,0.9c0.2,0.58,0.4,1.16,0.58,1.74
						c0.01,0.03,0.02,0.06,0.03,0.09c0.1,0.31,0.19,0.62,0.27,0.93c0.06,0.22,0.12,0.45,0.18,0.67c0.11,0.4,0.21,0.8,0.31,1.21
						c0.07,0.28,0.13,0.56,0.19,0.84c0.08,0.35,0.15,0.7,0.22,1.06c0.06,0.32,0.12,0.65,0.17,0.97c0.05,0.32,0.11,0.65,0.15,0.97
						c0.05,0.33,0.09,0.65,0.13,0.98c0.02,0.15,0.04,0.31,0.05,0.46c0.06,0.51,0.11,1.03,0.15,1.55
						C297.29,258.69,297.33,259.68,297.34,260.69z"/>
					<path class="st3" d="M291.6,262.6c0.03,3.77-0.48,7.43-1.48,10.88c-0.59,2.08-1.36,4.08-2.28,6c-1.54,3.22-3.52,6.2-5.87,8.87
						h-58.86c0.03,0.03,0.06,0.06,0.09,0.1c-0.06-0.03-0.12-0.06-0.19-0.1h-1.95c-0.59-0.67-1.16-1.36-1.68-2.06
						c-1.6-2.08-2.99-4.33-4.13-6.7c-0.7-1.45-1.32-2.95-1.83-4.49c-1.26-3.74-1.95-7.74-1.99-11.89c-0.03-3.3,0.37-6.52,1.13-9.59
						c0.49-1.98,1.14-3.89,1.92-5.73c2.91-6.83,7.74-12.7,13.85-16.92c5.83-4.05,12.83-6.61,20.41-7.11
						c0.81-0.06,1.63-0.09,2.45-0.1c7.26-0.05,14.09,1.78,19.99,5.04c0.88,0.48,1.75,1,2.59,1.56c0.01,0,0.01,0,0.01,0
						c3.19,2.08,6.06,4.6,8.51,7.47c2.35,2.74,4.32,5.81,5.83,9.12c0.66,1.44,1.24,2.93,1.72,4.47
						C290.96,254.96,291.57,258.71,291.6,262.6z"/>
					<path class="st2" d="M290.06,262.61c0.03,3.73-0.5,7.34-1.51,10.75c-0.57,1.94-1.3,3.8-2.16,5.6
						c-1.67,3.45-3.86,6.61-6.47,9.39h-56.81c-2.63-2.8-4.83-5.98-6.5-9.47c-0.66-1.36-1.23-2.76-1.71-4.2
						c-1.22-3.61-1.89-7.47-1.93-11.48c-0.03-3.18,0.35-6.27,1.09-9.22c0.47-1.88,1.08-3.71,1.83-5.47
						c2.77-6.52,7.35-12.12,13.14-16.18c5.66-3.97,12.45-6.48,19.83-6.97c0.78-0.05,1.57-0.09,2.36-0.09
						c7.14-0.05,13.84,1.79,19.59,5.05c0.8,0.45,1.58,0.93,2.34,1.43v0.01c2.98,1.97,5.67,4.35,7.97,7.04
						c2.22,2.6,4.1,5.49,5.54,8.62c1.22,2.62,2.13,5.4,2.7,8.3C289.81,257.95,290.05,260.25,290.06,262.61z"/>
					<path class="st3" d="M287.97,262.63c0.03,3.54-0.47,6.97-1.44,10.2c-0.52,1.77-1.18,3.47-1.97,5.11c0.01,0.01,0,0.01,0,0.01
						c-1.86,3.91-4.43,7.43-7.56,10.41h-50.96c-3.21-3.06-5.83-6.69-7.72-10.73c-0.58-1.24-1.09-2.53-1.52-3.85
						c-1.1-3.34-1.7-6.89-1.73-10.59c-0.02-3.01,0.33-5.93,1.03-8.72c0.41-1.65,0.94-3.25,1.57-4.79
						c2.58-6.3,6.97-11.72,12.53-15.64c5.35-3.78,11.8-6.17,18.8-6.63c0.74-0.05,1.48-0.08,2.23-0.09
						c6.84-0.05,13.25,1.74,18.75,4.9c0.7,0.4,1.39,0.83,2.06,1.28c2.79,1.86,5.31,4.09,7.47,6.62c2.13,2.49,3.91,5.26,5.29,8.26
						c1.87,4.09,2.99,8.58,3.15,13.32C287.95,262,287.97,262.32,287.97,262.63z"/>
					<ellipse class="st5" cx="246.5" cy="258.45" rx="26.47" ry="25.85"/>
					<path class="st3" d="M287.94,261.69c-0.16-4.74-1.28-9.23-3.15-13.32v-0.01c-1.38-3-3.16-5.77-5.29-8.26
						c-2.16-2.53-4.68-4.76-7.47-6.62c-0.67-0.45-1.36-0.87-2.06-1.28c-5.49-3.16-11.91-4.95-18.75-4.9
						c-0.75,0.01-1.49,0.04-2.23,0.09c-7,0.46-13.44,2.85-18.8,6.63c-5.56,3.92-9.94,9.34-12.53,15.64
						c-0.64,1.55-1.16,3.15-1.57,4.79c-0.7,2.79-1.05,5.72-1.03,8.72c0.03,3.69,0.64,7.25,1.73,10.59c0.43,1.32,0.94,2.6,1.52,3.85
						c1.88,4.04,4.51,7.67,7.72,10.73h10.4c-6.62-2.79-12.07-7.75-15.39-13.98c-0.52-0.97-0.98-1.96-1.38-2.99
						c-1.35-3.36-2.09-7.02-2.13-10.84c-0.02-1.83,0.13-3.63,0.44-5.37c0.25-1.46,0.61-2.88,1.07-4.27v-0.01
						c2.15-6.49,6.46-12.03,12.11-15.81c4.96-3.32,10.94-5.28,17.4-5.33c0.37-0.01,0.74,0,1.1,0.01c6.59,0.17,12.68,2.34,17.65,5.9
						c0.48,0.34,0.95,0.7,1.42,1.08h0.01c0.9,0.73,1.77,1.51,2.58,2.33c4.15,4.19,7.08,9.55,8.22,15.52v0.01
						c0.34,1.77,0.53,3.58,0.54,5.44c0.02,2.1-0.18,4.15-0.58,6.14c-0.23,1.11-0.51,2.2-0.85,3.27v0.01
						c-2.73,8.49-9.16,15.39-17.46,18.88H277c3.12-2.98,5.69-6.5,7.56-10.41v-0.01c0.79-1.64,1.45-3.34,1.97-5.11
						c0.96-3.23,1.46-6.66,1.44-10.2C287.97,262.32,287.95,262,287.94,261.69z M221.06,274.38c-0.01,0.02-0.02,0.03-0.03,0.04
						c-0.26,0.4-0.53,0.8-0.81,1.17c-0.12,0.15-0.24,0.3-0.36,0.45c-0.03,0.03-0.05,0.06-0.08,0.1c-0.04,0.05-0.08,0.09-0.12,0.14
						c-0.03,0.04-0.06,0.07-0.1,0.11c-0.06,0.07-0.12,0.13-0.18,0.2c-0.02,0.02-0.03,0.04-0.05,0.06c-0.01,0.01-0.01,0.01-0.01,0.01
						h-0.01c-0.02,0.03-0.05,0.06-0.08,0.08c-0.13,0.14-0.26,0.27-0.4,0.41c-0.12,0.12-0.25,0.24-0.38,0.35
						c-0.02,0.02-0.05,0.04-0.08,0.06c-0.02,0.03-0.05,0.04-0.07,0.06c1.88,4.04,4.51,7.67,7.72,10.73h10.4
						C229.82,285.57,224.37,280.6,221.06,274.38z"/>
					<g>
						<path class="st5" d="M224.88,243.57c2.63-2.68,5.71-3.96,6.88-2.86c1.17,1.09-0.02,4.15-2.64,6.83
							c-2.63,2.68-5.71,3.96-6.88,2.86C221.07,249.3,222.25,246.24,224.88,243.57z"/>
						<path class="st5" d="M233.14,235.16c1.12-1.14,2.98-1.18,4.15-0.08c1.17,1.09,1.21,2.91,0.09,4.05s-2.98,1.18-4.15,0.08
							C232.06,238.11,232.02,236.3,233.14,235.16z"/>
					</g>
					<path class="st5" d="M279.51,240.11c-2.6-0.94-5.43-1.3-8.18-1.01c-0.01,0-0.01,0-0.02,0.01c-1.97,0.21-3.88,0.72-5.69,1.48
						h-0.01c-4.36,1.81-8.15,5.05-10.81,8.92c-3.77,5.49-5.47,12.14-5.9,18.73c-0.33,5.3,0.12,10.64,1.35,15.81
						c0.34,1.45,0.75,2.89,1.23,4.31h-25.44c-3.21-3.06-5.83-6.69-7.72-10.73c-0.58-1.24-1.09-2.53-1.52-3.85
						c-1.1-3.34-1.7-6.89-1.73-10.59c-0.02-3.01,0.33-5.93,1.03-8.72c0.61,0.27,1.24,0.51,1.88,0.72c0.72,0.24,1.45,0.45,2.18,0.61
						c0.75,0.18,1.51,0.32,2.27,0.42c0.8,0.11,1.61,0.18,2.43,0.2c8.62,0.26,17.21-4.33,21.64-11.55c0.55-0.9,1.03-1.84,1.45-2.81
						c1.26-2.92,1.91-6.09,1.93-9.26c0.01-0.65-0.02-1.3-0.06-1.94c-0.03-0.35-0.08-0.71-0.16-1.08c-0.15-0.77-0.39-1.57-0.66-2.38
						c0.74-0.05,1.48-0.08,2.23-0.09c6.84-0.05,13.25,1.74,18.75,4.9c0.7,0.4,1.39,0.83,2.06,1.28
						C274.83,235.34,277.34,237.58,279.51,240.11z"/>
				</g>
				<polygon class="st6" points="173.26,288.36 340.4,294.5 340.4,288.36 				"/>
				<path class="st2" d="M223.2,288.45c-0.06-0.03-0.12-0.06-0.19-0.1h0.1C223.14,288.39,223.17,288.42,223.2,288.45z"/>
				<g>
					<path class="st2" d="M286.96,288.36c0,0,6.18-8,12.31-7.89c6.13,0.11,8.43,7.98,8.43,7.98S299.93,295.37,286.96,288.36z"/>
					<path class="st4" d="M307.7,288.45c0,0-7.61,6.78-20.35,0.11c3.8,1.15,6.98,1.1,9.46,0.6c4-0.81,5.49-5.84,2.51-8.62
						c-0.03-0.02-0.05-0.05-0.08-0.07h0.04C305.4,280.58,307.7,288.45,307.7,288.45z"/>
				</g>
				<g>
					<path class="st2" d="M213.35,288.36c0,0-6.18-8-12.31-7.89c-6.13,0.11-8.43,7.98-8.43,7.98S200.38,295.37,213.35,288.36z"/>
					<path class="st4" d="M192.61,288.45c0,0,7.61,6.78,20.35,0.11c-3.8,1.15-6.98,1.1-9.46,0.6c-4-0.81-5.49-5.84-2.51-8.62
						c0.03-0.02,0.05-0.05,0.08-0.07h-0.04C194.91,280.58,192.61,288.45,192.61,288.45z"/>
				</g>
			</g>
		</g>
	</g>
	<g>
		<circle class="st7" cx="412.66" cy="372.19" r="19.56"/>
		<circle class="st2" cx="333.99" cy="287.44" r="7.83"/>
		<circle class="st1" cx="10.76" cy="179.11" r="5.54"/>
		<circle class="st7" cx="489.24" cy="143.99" r="5.54"/>
		<circle class="st8" cx="180.41" cy="142.46" r="7.07"/>
		<g>
			<path class="st1" d="M127.09,372.92L127.09,372.92c-0.32,0-0.59-0.26-0.59-0.59v-13.22c0-0.32,0.26-0.59,0.59-0.59l0,0
				c0.32,0,0.59,0.26,0.59,0.59v13.22C127.68,372.66,127.42,372.92,127.09,372.92z"/>
			<path class="st1" d="M119.9,365.73L119.9,365.73c0-0.3,0.25-0.55,0.55-0.55h13.3c0.3,0,0.55,0.25,0.55,0.55l0,0
				c0,0.3-0.25,0.55-0.55,0.55h-13.3C120.14,366.28,119.9,366.03,119.9,365.73z"/>
		</g>
		<g>
			<path class="st1" d="M378.98,74.18L378.98,74.18c-0.45-0.45-0.45-1.18,0-1.64l18.4-18.4c0.45-0.45,1.18-0.45,1.64,0l0,0
				c0.45,0.45,0.45,1.18,0,1.64l-18.4,18.4C380.16,74.64,379.43,74.64,378.98,74.18z"/>
			<path class="st1" d="M378.98,54.15L378.98,54.15c0.42-0.42,1.1-0.42,1.53,0l18.51,18.51c0.42,0.42,0.42,1.1,0,1.53l0,0
				c-0.42,0.42-1.1,0.42-1.53,0l-18.51-18.51C378.56,55.25,378.56,54.57,378.98,54.15z"/>
		</g>
	</g>
</g>
</svg>
